<?xml version="1.0" standalone="no"?>
<!DOCTYPE svg PUBLIC "-//W3C//DTD SVG 20010904//EN"
 "http://www.w3.org/TR/2001/REC-SVG-20010904/DTD/svg10.dtd">
<svg version="1.0" xmlns="http://www.w3.org/2000/svg"
 width="214.000000pt" height="50.000000pt" viewBox="0 0 214.000000 50.000000"
 preserveAspectRatio="xMidYMid meet">

<g transform="translate(0.000000,50.000000) scale(0.100000,-0.100000)"
fill="#000000" stroke="none">
<path d="M3 484 c-3 -8 -1 -20 6 -27 8 -8 11 -7 11 6 0 15 12 17 90 17 103 0
150 -15 177 -56 15 -23 18 -49 18 -146 0 -64 4 -113 8 -109 5 5 7 63 5 129 -3
117 -4 122 -31 150 -36 37 -92 52 -197 52 -64 0 -82 -3 -87 -16z"/>
<path d="M0 257 l0 -177 110 0 c77 0 120 4 139 14 60 32 60 32 -99 191 l-150
150 0 -178z"/>
<path d="M1680 395 c-18 -22 -8 -50 19 -50 32 0 49 28 32 49 -17 20 -35 20
-51 1z"/>
<path d="M580 236 l0 -156 65 0 c130 0 165 33 165 157 0 77 -2 85 -28 115 -28
30 -33 32 -115 36 l-87 5 0 -157z m150 74 c15 -15 20 -33 20 -75 0 -65 -22
-95 -70 -95 l-30 0 0 95 0 95 30 0 c17 0 39 -9 50 -20z"/>
<path d="M2030 236 c0 -118 1 -126 22 -140 12 -9 37 -16 55 -16 28 0 33 4 33
24 0 18 -6 25 -22 28 -20 3 -23 10 -26 61 -3 52 -1 57 18 57 30 0 28 47 -2 52
-17 2 -24 11 -26 31 -3 21 -9 27 -28 27 l-24 0 0 -124z"/>
<path d="M903 300 c-32 -13 -43 -41 -43 -114 0 -58 3 -67 26 -85 17 -13 41
-21 65 -21 37 0 89 17 89 29 -1 21 -21 29 -65 28 -40 -2 -50 1 -53 16 -3 15 5
17 62 17 l66 0 0 41 c0 75 -72 119 -147 89z m75 -52 c23 -23 13 -38 -23 -38
-27 0 -35 4 -35 18 0 10 3 22 7 25 10 11 38 8 51 -5z"/>
<path d="M1125 298 c-27 -15 -35 -28 -35 -59 0 -32 24 -54 69 -66 19 -5 36
-14 39 -21 6 -19 -28 -26 -62 -14 -26 10 -33 10 -43 -5 -7 -9 -13 -20 -13 -23
0 -13 52 -30 91 -30 50 0 77 14 89 46 18 47 -15 85 -85 96 -11 2 -20 10 -20
18 0 11 12 15 43 15 52 0 73 23 39 42 -28 15 -86 16 -112 1z"/>
<path d="M1345 298 c-36 -21 -44 -42 -45 -106 0 -55 3 -66 26 -87 30 -28 93
-33 131 -12 19 10 20 14 8 30 -10 15 -21 17 -45 12 -41 -9 -60 8 -60 56 0 47
21 70 58 63 33 -7 63 19 44 38 -16 16 -94 20 -117 6z"/>
<path d="M1533 300 c-22 -9 -23 -15 -23 -115 l0 -105 30 0 30 0 0 84 c0 88 4
96 52 96 14 0 19 6 16 23 -2 18 -10 22 -43 24 -22 1 -50 -2 -62 -7z"/>
<path d="M1813 300 c-22 -9 -23 -13 -23 -155 l0 -145 30 0 c28 0 30 2 30 40
l0 40 40 0 c64 0 90 32 90 112 -1 65 -10 87 -47 106 -25 14 -88 15 -120 2z
m91 -53 c13 -9 17 -24 14 -56 -3 -47 -23 -69 -52 -58 -20 8 -23 112 -3 120 19
8 22 8 41 -6z"/>
<path d="M1672 193 l3 -108 30 0 30 0 3 108 3 107 -36 0 -36 0 3 -107z"/>
</g>
</svg>
